<svg width="79" height="18" viewBox="0 0 79 18" fill="none" xmlns="http://www.w3.org/2000/svg">
<path d="M38.824 1.60254C34.8384 1.60254 31.8423 4.64046 31.8423 8.65385C31.8423 12.1656 34.3646 15.733 39.1863 15.733C40.0503 15.733 40.8725 15.6076 41.625 15.3428L41.2348 11.9565C40.5937 12.3328 39.897 12.514 39.1584 12.514C37.4025 12.514 36.0369 11.5803 35.5073 10.0892H45.9031V9.47604C45.9031 4.84949 42.9906 1.60254 38.824 1.60254ZM35.4795 7.12096C35.8696 5.93645 36.8869 4.80768 38.7961 4.80768C40.3986 4.80768 41.6946 5.72742 42.1266 7.12096H35.4795Z" fill="#004A8F"/>
<path d="M60.7027 1.60254C58.905 1.60254 57.4836 2.18783 56.5778 3.27479C55.3794 1.79763 53.9162 1.60254 52.871 1.60254C51.9234 1.60254 50.8225 1.83944 49.9585 2.42473V1.60254H46.5304V15.733H49.9585V7.49721C49.9585 5.85284 50.9061 4.87736 52.4947 4.87736C53.8465 4.87736 54.6269 5.79709 54.6269 7.39966V15.733H58.055V7.49721C58.055 5.85284 59.0026 4.87736 60.5912 4.87736C61.9429 4.87736 62.7233 5.79709 62.7233 7.39966V15.733H66.1514V7.16276C66.1514 3.77646 64.0193 1.60254 60.7027 1.60254Z" fill="#004A8F"/>
<path d="M26.2681 12.514L31.2431 4.37568C31.9398 2.9264 31.2152 1.65828 29.4175 1.60254H21.4744L22.2687 4.82162H26.9928L21.5998 13.587L22.0039 15.7191H32.9293L32.1349 12.5H26.2681V12.514Z" fill="#004A8F"/>
<path d="M72.8403 1.61621C71.6837 1.61621 70.5131 1.71376 69.3286 2.09001L69.8721 5.03038C70.8336 4.70987 71.8509 4.64019 72.7288 4.64019C74.7355 4.64019 75.7389 5.55993 75.7389 6.77231V6.85592C74.8191 6.32638 73.76 6.0616 72.6034 6.0616C68.59 6.0616 66.7784 8.51423 66.7784 10.7996C66.7784 13.5031 68.8687 15.4401 71.9345 15.7049L71.9206 15.7188H72.1714C72.3247 15.7328 72.478 15.7328 72.6313 15.7328C72.687 15.7328 72.7428 15.7328 72.7846 15.7328H77.1463C77.2021 15.7328 77.2578 15.7328 77.3136 15.7188H78.4145C78.735 15.7188 78.9998 15.4541 78.9998 15.1335V13.5867V9.22494V6.61902C79.0276 3.76226 76.6029 1.61621 72.8403 1.61621ZM75.8364 12.458C75.8364 12.7785 75.5856 13.0293 75.2651 13.0293H72.9379H72.8264C72.8124 13.0293 72.7846 13.0293 72.7706 13.0293C72.6731 13.0293 72.5755 13.0154 72.4919 13.0014C72.3944 12.9875 72.3108 12.9736 72.2132 12.9596C72.1714 12.9596 72.1435 12.9457 72.1017 12.9318C72.0878 12.9318 72.0878 12.9318 72.0739 12.9318C72.046 12.9178 72.0042 12.9178 71.9763 12.9039C71.9624 12.9039 71.9484 12.9039 71.9345 12.8899C71.9066 12.876 71.8788 12.876 71.8509 12.8621C71.837 12.8621 71.823 12.8481 71.8091 12.8481C71.7812 12.8342 71.7533 12.8342 71.7255 12.8203C71.7115 12.8203 71.6976 12.8063 71.6837 12.8063C71.6558 12.7924 71.6279 12.7924 71.6001 12.7785C71.5861 12.7785 71.5722 12.7645 71.5583 12.7645C71.5304 12.7506 71.5025 12.7506 71.4886 12.7367C71.4746 12.7367 71.4607 12.7227 71.4468 12.7227C71.4189 12.7088 71.405 12.7088 71.3771 12.6949C71.3632 12.6809 71.3492 12.6809 71.3353 12.667C71.3074 12.653 71.2935 12.6391 71.2656 12.6391C71.2517 12.6252 71.2377 12.6252 71.2238 12.6112C71.1959 12.5973 71.182 12.5834 71.1681 12.5834C71.1541 12.5694 71.1402 12.5694 71.1263 12.5555C71.1123 12.5416 71.0844 12.5276 71.0705 12.5137C71.0566 12.4998 71.0426 12.4998 71.0287 12.4858C71.0148 12.4719 70.9869 12.458 70.973 12.444C70.959 12.4301 70.9451 12.4301 70.9312 12.4161C70.9172 12.4022 70.9033 12.3883 70.8754 12.3743C70.8615 12.3604 70.8475 12.3465 70.8336 12.3465C70.8197 12.3325 70.8057 12.3186 70.7779 12.3047C70.7639 12.2907 70.75 12.2768 70.7361 12.2629C70.7221 12.2489 70.7082 12.235 70.6943 12.221C70.6803 12.2071 70.6664 12.1932 70.6525 12.1792C70.6385 12.1653 70.6246 12.1514 70.6106 12.1374C70.5967 12.1235 70.5828 12.1096 70.5688 12.0956C70.5549 12.0817 70.541 12.0678 70.527 12.0538C70.5131 12.0399 70.4992 12.026 70.4852 12.012C70.4713 11.9981 70.4574 11.9841 70.4434 11.9702C70.4295 11.9563 70.4155 11.9423 70.4155 11.9284C70.4016 11.9145 70.3877 11.9005 70.3877 11.8866C70.3737 11.8727 70.3598 11.8587 70.3598 11.8448C70.3459 11.8309 70.3459 11.8169 70.3319 11.803C70.318 11.7891 70.318 11.7751 70.3041 11.7612C70.2901 11.7472 70.2901 11.7333 70.2762 11.7194C70.2623 11.7054 70.2623 11.6915 70.2483 11.6636C70.2344 11.6497 70.2344 11.6358 70.2205 11.6218C70.2065 11.6079 70.2065 11.594 70.1926 11.5661C70.1786 11.5521 70.1786 11.5382 70.1786 11.5243C70.1647 11.5103 70.1647 11.4825 70.1647 11.4685C70.1647 11.4546 70.1508 11.4407 70.1508 11.4267C70.1508 11.4128 70.1368 11.3849 70.1368 11.371C70.1368 11.3571 70.1229 11.3431 70.1229 11.3292C70.1229 11.3152 70.109 11.2874 70.109 11.2734C70.109 11.2595 70.095 11.2456 70.095 11.2316C70.095 11.2177 70.0811 11.1898 70.0811 11.1759C70.0811 11.162 70.0811 11.148 70.0672 11.1341C70.0672 11.1062 70.0672 11.0923 70.0532 11.0644C70.0532 11.0505 70.0532 11.0365 70.0532 11.0226C70.0532 10.9808 70.0532 10.9529 70.0532 10.9111C70.0532 9.74055 71.3492 8.77901 72.9518 8.77901C73.0075 8.77901 73.0493 8.77901 73.1051 8.77901C73.119 8.77901 73.133 8.77901 73.1608 8.77901C73.1887 8.77901 73.2305 8.77901 73.2584 8.77901C73.2723 8.77901 73.3002 8.77901 73.3141 8.77901C73.342 8.77901 73.3699 8.77901 73.3977 8.79294C73.4256 8.79294 73.4395 8.79294 73.4674 8.80688C73.4953 8.80688 73.5231 8.80688 73.5371 8.82081C73.565 8.82081 73.5789 8.83475 73.6068 8.83475C73.6346 8.83475 73.6486 8.84868 73.6764 8.84868C73.7043 8.84868 73.7322 8.86262 73.7461 8.86262C73.76 8.86262 73.7879 8.87655 73.8018 8.87655C73.8297 8.87655 73.8576 8.89049 73.8855 8.89049C73.8994 8.89049 73.9273 8.90442 73.9412 8.90442C73.9691 8.91836 73.9969 8.91836 74.0248 8.93229C74.0388 8.93229 74.0527 8.94623 74.0806 8.94623C74.1084 8.96017 74.1363 8.96017 74.1642 8.9741C74.1781 8.9741 74.192 8.98804 74.206 8.98804C74.2338 9.00197 74.2617 9.01591 74.2896 9.01591C74.3035 9.01591 74.3175 9.02984 74.3314 9.02984C74.3593 9.04378 74.3871 9.05771 74.415 9.07165C74.4289 9.07165 74.4429 9.08558 74.4429 9.08558C74.4708 9.09952 74.4986 9.11345 74.5265 9.12739C74.5404 9.12739 74.5404 9.14133 74.5544 9.14133C74.5822 9.15526 74.6101 9.1692 74.638 9.18313C74.6519 9.18313 74.6519 9.19707 74.6658 9.19707C74.6937 9.211 74.7216 9.22494 74.7634 9.25281C74.7634 9.25281 74.7773 9.25281 74.7773 9.26674C74.8052 9.28068 74.8331 9.30855 74.8749 9.32249C74.8749 9.32249 74.8888 9.32249 74.8888 9.33642C74.9167 9.35036 74.9446 9.37823 74.9724 9.39216C74.9724 9.39216 74.9724 9.39216 74.9864 9.39216C75.0142 9.42003 75.0421 9.43397 75.07 9.46184C75.0978 9.48971 75.1257 9.50365 75.1536 9.53152C75.1815 9.55939 75.2093 9.58726 75.2372 9.61513C75.5995 9.96351 75.8225 10.3955 75.8225 10.8693C75.8225 10.8833 75.8225 10.8833 75.8225 10.8972V12.458H75.8364Z" fill="#004A8F"/>
<path d="M15.6634 14.4092L11.3853 1.51896C11.1623 0.850059 10.6327 0.33445 9.94991 0.111483C9.94991 0.111483 9.93597 0.111483 9.92204 0.0975478H9.9081C9.81056 0.069677 9.68514 0.0418062 9.55972 0.0278708C9.54578 0.0278708 9.54578 0.0278708 9.53185 0.0278708C9.51791 0.0278708 9.49004 0.0139354 9.46217 0.0139354C9.39249 0.0139354 9.33675 0.0139354 9.28101 0.0139354H9.23921L9.1974 0C9.14166 0 9.07198 0 9.01624 0C8.98837 0 8.9605 0.0139354 8.94656 0.0139354C8.93263 0.0139354 8.93263 0.0139354 8.91869 0.0139354C8.79327 0.0278708 8.66785 0.0557416 8.57031 0.0836124H8.55637C8.55637 0.0836124 8.54244 0.0836124 8.54244 0.0975478C7.8596 0.320514 7.33006 0.850059 7.10709 1.50502L2.82892 14.3953C2.75925 14.6043 2.71744 14.8273 2.71744 15.0363C2.7035 15.524 2.84286 16.0118 3.16337 16.4159C3.38634 16.7225 3.67898 16.9454 3.98556 17.0987C3.9995 17.0987 3.9995 17.1127 4.01343 17.1127C4.05524 17.1405 4.11098 17.1545 4.15279 17.1684C4.18066 17.1823 4.19459 17.1823 4.22246 17.1963C4.25033 17.2102 4.2782 17.2102 4.30607 17.2242C4.38969 17.252 4.48723 17.266 4.57085 17.2938C4.58478 17.2938 4.61265 17.3078 4.62659 17.3078C4.72414 17.3217 4.82168 17.3217 4.9053 17.3356C4.93317 17.3356 4.97497 17.3356 5.00284 17.3356C5.10039 17.3356 5.184 17.3217 5.28155 17.3078C5.30942 17.3078 5.35123 17.2938 5.3791 17.2938C5.43484 17.2799 5.50452 17.266 5.56026 17.252C5.8111 17.1823 6.06193 17.0709 6.2849 16.9036L6.42425 16.8061C6.73083 16.5553 6.96774 16.2208 7.10709 15.8167L9.26708 9.32278L11.4271 15.8167C11.8173 16.9872 13.0854 17.6283 14.2699 17.2381C15.4126 16.834 16.0536 15.5798 15.6634 14.4092Z" fill="#FBAF1A"/>
<path d="M0 6.93989C0 7.19073 0.0418062 7.42763 0.111483 7.63666C0.404127 8.54246 1.25419 9.19742 2.2436 9.19742H9.08588L3.59533 13.2944C2.60592 14.033 2.41082 15.4405 3.13546 16.4299C3.87404 17.4193 5.26758 17.6423 6.25699 16.9037L17.1545 8.77936C17.7119 8.3613 18.0463 7.6924 18.0463 6.98169C18.0463 6.96776 18.0463 6.96776 18.0463 6.95382V6.93989C18.0463 6.8284 18.0324 6.71692 18.0045 6.5915C18.0045 6.57757 18.0045 6.57757 18.0045 6.56363C18.0045 6.5497 18.0045 6.52183 17.9906 6.49396C17.9767 6.43821 17.9627 6.36854 17.9349 6.31279L17.9209 6.27099L17.907 6.22918C17.8931 6.17344 17.8652 6.1177 17.8512 6.06196C17.8373 6.03409 17.8234 6.02015 17.8234 6.00622C17.8234 5.99228 17.8094 5.99228 17.8094 5.97835C17.7537 5.86686 17.684 5.75538 17.6283 5.67177L17.6143 5.65783L17.6004 5.6439C17.1684 5.07254 16.4995 4.72416 15.8027 4.72416L2.22966 4.69629C0.989413 4.69629 0 5.71357 0 6.93989Z" fill="url(#paint0_linear_76_1409)"/>
<defs>
<linearGradient id="paint0_linear_76_1409" x1="0" y1="11.0207" x2="18.0437" y2="11.0207" gradientUnits="userSpaceOnUse">
<stop stop-color="#E5A812"/>
<stop offset="0.3297" stop-color="#FFCB05"/>
<stop offset="0.7386" stop-color="#FFF200"/>
<stop offset="1" stop-color="#FFF200"/>
</linearGradient>
</defs>
</svg>