<?xml version="1.0" encoding="UTF-8"?>
<!-- Generator: Adobe Illustrator 22.1.0, SVG Export Plug-In . SVG Version: 6.00 Build 0)  -->
<svg version="1.1" id="Layer_1" xmlns="http://www.w3.org/2000/svg" xmlns:xlink="http://www.w3.org/1999/xlink" x="0px" y="0px" viewBox="0 0 422.7 91.9" style="enable-background:new 0 0 422.7 91.9;" xml:space="preserve">
<style type="text/css">
	.wc-logo-0{fill:#0B286E;}
	.wc-logo-1{fill:#FFFFFF;}
	.wc-logo-2{fill:#0098FF;}
	.wc-logo-3{fill:none;stroke:#FFFFFF;stroke-miterlimit:10;}
	.wc-logo-4{fill:none;stroke:#0B286E;stroke-miterlimit:10;}
	.wc-logo-5{fill:#6D6E70;}
	.wc-logo-6{fill:#BBBDBF;}
	.wc-logo-7{fill:#F9F4F5;}
	.wc-logo-8{fill:none;stroke:#001338;stroke-width:0.25;stroke-miterlimit:10;}
	.wc-logo-9{fill:#001338;}
	.wc-logo-10{fill:#BBEAFF;}
	.wc-logo-11{fill:#1753CC;}
	.wc-logo-12{fill:#E92E52;}
	.wc-logo-13{fill:#FF8604;}
</style>
<g>
	<path class="wc-logo-0" d="M101.7,59.9c0,0.5,0.4,0.9,0.9,0.9h2.9c0.8,0,1.5-0.6,1.7-1.4l0.7-2.6c2.4,3,5.7,4.8,9.9,4.8   c7.8,0,13.6-5.9,13.6-14.9c0-8.7-5.6-14.8-13.6-14.8c-6.7,0-9.2,3.3-9.2,3.3V16.4c0-0.5-0.4-0.9-0.9-0.8c-1.3,0.1-3.7,0.4-5.6,1.7   c-0.2,0.2-0.4,0.4-0.4,0.7V59.9z M116.5,55.5c-4.9,0-8.1-3.3-8.1-8.8c0-5.4,3.3-8.7,8.1-8.7c4.7,0,7.9,3.3,7.9,8.7   C124.4,52.1,121.1,55.5,116.5,55.5z"/>
	<g>
		<path class="wc-logo-2" d="M277.8,32c-4.6,0-7.6,2.3-9.4,5.2c0,0-0.4-2.4-0.6-3.2c-0.2-0.7-0.9-1.2-1.8-1.2h-2.8c-0.5,0-0.8,0.4-0.8,0.9    V60c0,0.5,0.4,0.8,0.9,0.8h5.2c0.5,0,0.9-0.4,0.9-0.8V45.4c0-4.2,2.6-7.2,6.9-7.2c3.4,0,4.8,2.2,4.8,5.7V60c0,0.5,0.4,0.9,0.9,0.9    h5.2c0.5,0,0.9-0.4,0.9-0.9V43.2C287.7,36.1,284.2,32,277.8,32z"/>
	</g>
	<g>
		<path class="wc-logo-2" d="M339.1,32c-4.6,0-7.6,2.3-9.4,5.2c0,0-0.4-2.4-0.6-3.2c-0.2-0.7-0.9-1.2-1.8-1.2h-2.8c-0.5,0-0.8,0.4-0.8,0.9    V60c0,0.5,0.4,0.8,0.9,0.8h5.2c0.5,0,0.9-0.4,0.9-0.8V45.4c0-4.2,2.6-7.2,6.9-7.2c3.4,0,4.8,2.2,4.8,5.7V60c0,0.5,0.4,0.9,0.9,0.9    h5.2c0.5,0,0.9-0.4,0.9-0.9V43.2C349,36.1,345.5,32,339.1,32z"/>
	</g>
	<g>
		<path class="wc-logo-2" d="M211.4,32c-4.6,0-7.6,2.3-9.4,5.2c0,0-0.4-2.4-0.6-3.2c-0.2-0.7-0.9-1.2-1.8-1.2h-2.8c-0.5,0-0.8,0.4-0.8,0.9    V60c0,0.5,0.4,0.8,0.9,0.8h5.2c0.5,0,0.9-0.4,0.9-0.8V45.4c0-4.2,2.6-7.2,6.9-7.2c3.4,0,4.8,2.2,4.8,5.7V60c0,0.5,0.4,0.9,0.9,0.9    h5.2c0.5,0,0.9-0.4,0.9-0.9V43.2C221.2,36.1,217.8,32,211.4,32z"/>
	</g>
	<g>
		<path class="wc-logo-2" d="M402.4,32.7h-2.8c-0.8,0-1.5,0.5-1.8,1.2l-0.7,2.8c-2.5-3.2-6-4.7-9.9-4.7c-7.9,0-13.6,6.1-13.6,14.8    c0,9,5.7,14.9,13.6,14.9c4.2,0,7.5-1.8,9.9-4.8l0.7,2.6c0.2,0.8,0.9,1.4,1.7,1.4h2.9c0.5,0,0.9-0.4,0.9-0.9V33.5    C403.2,33.1,402.8,32.7,402.4,32.7z M388.4,55.5c-4.7,0-7.9-3.3-7.9-8.8c0-5.4,3.3-8.7,7.9-8.7c4.9,0,8.1,3.3,8.1,8.7    C396.6,52.1,393.3,55.5,388.4,55.5z"/>
	</g>
	<g>
		<path class="wc-logo-2" d="M416.4,16.4c0-0.4-0.3-0.9-0.9-0.9c-1.3,0.1-3.7,0.4-5.6,1.7c-0.2,0.1-0.4,0.4-0.4,0.7v42    c0,0.5,0.4,0.9,0.9,0.9h5.2c0.5,0,0.9-0.4,0.9-0.9L416.4,16.4z"/>
	</g>
	<path class="wc-logo-2" d="M355.3,26.3c0-0.3,0.1-0.5,0.4-0.7c2-1.3,4.4-1.7,5.6-1.7c0.6,0,0.9,0.4,0.9,0.9l0,7.9h7.9   c0.4,0,0.8,0.4,0.8,0.8v4.3c0,0.4-0.4,0.8-0.8,0.8h-7.9v13c0,2.8,1.3,3.6,3.1,3.6c1.4,0,2.6-0.3,3.9-1c0.5-0.2,1,0,1.2,0.4l1.5,3.6   c0.2,0.4,0,0.9-0.3,1.1c-2.4,1.4-4.9,2.4-7.8,2.4c-5,0-8.4-3.1-8.4-9.4V26.3z"/>
	<path class="wc-logo-2" d="M227.5,52.2c0,6.3,3.3,9.4,8.4,9.4c2.9,0,5.5-1,7.8-2.4c0.4-0.2,0.5-0.7,0.3-1.1l-1.5-3.6   c-0.2-0.5-0.7-0.7-1.2-0.4c-1.3,0.7-2.6,1-3.9,1c-1.8,0-3.1-0.8-3.1-3.6v-13h7.9c0.4,0,0.8-0.4,0.8-0.8v-4.3c0-0.4-0.4-0.8-0.8-0.8   h-7.9l0-7.9c0-0.4-0.3-0.9-0.9-0.9c-1.3,0.1-3.7,0.4-5.6,1.7c-0.2,0.1-0.4,0.4-0.4,0.7V52.2z"/>
	<path class="wc-logo-0" d="M68.8,33.1c-0.2-0.3-0.5-0.4-0.8-0.4h-5.3c-0.4,0-0.7,0.2-0.9,0.6l-7.1,18l-7.2-18c-0.1-0.4-0.5-0.6-0.9-0.6   h-5.2c-0.3,0-0.6,0.1-0.8,0.4c-0.2,0.3-0.2,0.6-0.1,0.8l1.4,3.8l-5.5,13.5l-7.2-18c-0.1-0.4-0.5-0.6-0.9-0.6h-5.2   c-0.3,0-0.6,0.2-0.8,0.4c-0.2,0.3-0.2,0.6-0.1,0.9l10.3,26.3c0.1,0.4,0.5,0.6,0.9,0.6h5.9c0.4,0,0.7-0.2,0.9-0.6l5.4-13.4l5.3,13.4   c0.1,0.4,0.5,0.6,0.9,0.6h6c0.4,0,0.7-0.2,0.9-0.6l10.4-26.3C69,33.6,69,33.3,68.8,33.1z"/>
	<path class="wc-logo-2" d="M66.2,67.8c-0.5-0.5-1.3-0.5-1.7,0c-11.8,11.2-30.2,11-41.8-0.6C17,61.5,13.8,54,13.8,46   c0-8,3.1-15.6,8.7-21.3c11.3-11.4,30.1-11.6,41.9-0.5c0.5,0.5,1.3,0.4,1.7,0l3.6-3.6c0.2-0.2,0.4-0.6,0.4-0.9   c0-0.3-0.1-0.7-0.4-0.9C55,4.7,31.4,5,17.2,19.3C10.1,26.4,6.2,35.9,6.2,46c0,10.1,4,19.5,11.1,26.6c7.1,7,16.5,10.9,26.5,10.9   c0,0,0.1,0,0.1,0c9.6,0,18.8-3.7,25.7-10.4c0.2-0.2,0.4-0.6,0.4-0.9c0-0.3-0.1-0.7-0.4-0.9L66.2,67.8z"/>
	<path class="wc-logo-0" d="M84.5,32C76,32,70,38.5,70,46.7c0,8.8,6.2,14.9,15.2,14.9c4,0,7.3-1.1,10.3-3.4c0.4-0.3,0.5-0.8,0.2-1.2   l-1.7-2.6c-0.5-0.7-1.1-0.8-1.5-0.5c-1.8,1.3-3.9,2-6.7,2c-1.5,0-2.9-0.3-4.1-0.8c0,0,0,0,0,0c-2.7-1.2-4.9-4.3-4.9-8.4   c0-4.2,2.1-7.7,5.2-8.8c0.7-0.2,1.5-0.4,2.3-0.4c3.6,0,6.2,2.3,6.4,6.8h-9.4c-0.4,0-0.8,0.4-0.8,0.8v2.1c0,0.9,0.8,1.7,1.7,1.7   l13.2,0c0.9,0,1.6-0.7,1.7-1.5c0.1-0.6,0.1-1.2,0.1-1.7C97.2,37.3,92.4,32,84.5,32z"/>
	<path class="wc-logo-2" d="M252.7,19.4c-2.6,0-4.3,1.8-4.3,4.1c0,2.3,1.6,4.1,4.3,4.1c2.6,0,4.3-1.8,4.3-4   C257,21.2,255.3,19.4,252.7,19.4z"/>
	<g>
		<path class="wc-logo-2" d="M176.4,32c-8.8,0-15,6.1-15,14.7s6.2,14.9,15,14.9c8.8,0,15.1-6.2,15.1-14.9S185.2,32,176.4,32z M176.4,55.4    c-4.8,0-8.1-3.6-8.1-8.7c0-5.2,3.3-8.7,8.1-8.7c4.8,0,8.1,3.6,8.1,8.7C184.5,51.9,181.2,55.4,176.4,55.4z"/>
	</g>
	<g>
		<path class="wc-logo-2" d="M249.2,60c0,0.5,0.4,0.9,0.9,0.9l5.2,0c0.5,0,0.9-0.4,0.9-0.8c0-8.6,0-26.1,0-26.4c0-0.5-0.4-0.9-0.9-0.9h-5    c-0.5,0-0.9,0.4-0.9,0.9V60z"/>
	</g>
	<path class="wc-logo-2" d="M156.8,54.4c-0.3-0.4-0.8-0.6-1.3-0.3c-1.5,0.9-3.2,1.4-5.3,1.4c-4.5,0-8.2-3.3-8.2-8.8c0-5.3,3.6-8.8,8.4-8.8   c2.1,0,3.6,0.4,5.2,1.3c0.4,0.3,1,0.1,1.3-0.3l2.1-3.2c0.3-0.4,0.2-1-0.2-1.3c-2.6-1.7-5.5-2.5-8.8-2.5c-8.1,0-14.8,5.6-14.8,14.8   c0,9.8,7.4,14.8,14.5,14.8c3.8,0,6.6-0.9,9.1-2.6c0.4-0.3,0.5-0.9,0.2-1.3L156.8,54.4z"/>
	<path class="wc-logo-2" d="M306.6,32c-8.5,0-14.5,6.5-14.5,14.7c0,8.8,6.2,14.9,15.2,14.9c4,0,7.3-1.1,10.3-3.4c0.4-0.3,0.5-0.8,0.2-1.2   l-1.7-2.6c-0.5-0.7-1.1-0.8-1.5-0.5c-1.8,1.3-3.9,2-6.7,2c-1.5,0-2.9-0.3-4.1-0.8c0,0,0,0,0,0c-2.7-1.2-4.9-4.3-4.9-8.4   c0-4.2,2.1-7.7,5.2-8.8c0.7-0.2,1.5-0.4,2.3-0.4c3.6,0,6.2,2.3,6.4,6.8h-9.4c-0.5,0-0.9,0.4-0.9,0.9v2.1c0,0.9,0.8,1.7,1.7,1.7   l13.2,0c0.9,0,1.6-0.7,1.7-1.5c0.1-0.6,0.1-1.2,0.1-1.7C319.4,37.3,314.5,32,306.6,32z"/>
</g>
</svg>