<svg width="120" height="37" viewBox="0 0 120 37" fill="none" xmlns="http://www.w3.org/2000/svg">
<g clip-path="url(#clip0_13012_3088)">
<path d="M24.0043 36.8107C17.9328 36.9225 11.9895 35.0578 7.07005 31.4976C4.95634 29.9293 3.19052 27.9401 1.88395 25.6553C0.616932 23.4523 -0.0542544 20.9573 -0.0634766 18.4159C-0.0308918 16.3502 0.40834 14.3111 1.22918 12.4152C2.05002 10.5193 3.23637 8.80367 4.72043 7.36636C5.88772 6.1775 7.18744 5.12638 8.59413 4.23354C13.2119 1.41207 18.5296 -0.0548799 23.9408 -1.25738e-05C30.0122 -0.1118 35.9556 1.75294 40.875 5.31312C42.985 6.88544 44.75 8.87384 46.0611 11.1554C47.2106 13.1636 47.8658 15.4165 47.9725 17.728C48.0792 20.0395 47.6345 22.3432 46.6749 24.4488C43.7114 31.0319 35.9852 35.837 26.9889 36.6837C26.0152 36.6837 24.9991 36.8107 24.0043 36.8107Z" fill="white"/>
<path d="M32.8101 2.77296C33.0583 2.64737 33.3126 2.53435 33.5721 2.4343C30.4905 1.39047 27.2579 0.861243 24.0043 0.867876C18.7784 0.825193 13.6452 2.24784 9.18686 4.97443L8.78467 5.24959C10.789 4.95272 12.8125 4.80416 14.8386 4.80508C20.2933 4.77533 25.6963 5.86312 30.7145 8.0014C30.4477 7.55342 30.3087 7.04102 30.3123 6.51966C30.3395 5.71644 30.5949 4.93758 31.0484 4.27411C31.502 3.61064 32.1351 3.08996 32.8736 2.77296" fill="#E30613"/>
<path d="M44.6217 17.3787C44.1772 17.6751 43.7327 17.9291 43.3093 18.1619C44.4861 19.9267 45.3856 21.8613 45.9765 23.8984C46.727 22.1679 47.116 20.3022 47.1195 18.4159C47.1174 17.4558 47.0182 16.4984 46.8232 15.5583C46.1809 16.2351 45.4717 16.8451 44.7064 17.3787" fill="#E30613"/>
<path d="M7.23949 8.1496C6.54095 8.1496 5.84241 8.1496 5.12271 8.1496C2.43921 10.8625 0.920284 14.5155 0.88916 18.3313C0.88916 28.0049 11.2613 35.8793 24.0255 35.8793C24.7029 35.8793 25.4014 35.8793 26.1423 35.8793C27.4103 34.5711 28.4416 33.0527 29.1904 31.3918C30.0093 29.6049 30.4352 27.6632 30.4393 25.6977C30.4393 16.024 20.0671 8.1496 7.30299 8.1496" fill="#E30613"/>
<path d="M31.6459 21.4429C31.1238 21.4429 30.623 21.2355 30.2539 20.8663C29.8847 20.4971 29.6772 19.9964 29.6772 19.4743C29.6956 19.071 29.8289 18.6814 30.0614 18.3513C30.294 18.0213 30.616 17.7646 30.9897 17.6116H31.2013C32.4623 17.2602 33.6996 16.8289 34.9057 16.3203C35.7872 15.9743 36.6255 15.5268 37.4035 14.9868C38.3137 14.3306 38.5042 13.8649 38.5254 13.6532C38.5882 13.2293 38.5295 12.7962 38.356 12.4043C38.1712 12.0132 37.8954 11.6721 37.5517 11.4094C36.7946 10.8179 35.8979 10.4315 34.948 10.2875H34.7575C33.8203 10.1459 32.9123 9.85275 32.0692 9.41964C31.5287 9.17311 31.07 8.777 30.7474 8.27811C30.4248 7.77922 30.2518 7.19841 30.2488 6.60432C30.2761 5.8011 30.5314 5.02224 30.985 4.35877C31.4385 3.69529 32.0716 3.17464 32.8101 2.85765C34.4173 2.1024 36.1786 1.73272 37.9538 1.77807C39.0605 1.78734 40.1621 1.9295 41.2349 2.20146C42.4575 2.49526 43.633 2.95835 44.7275 3.57735C45.8772 4.2351 46.8674 5.1386 47.6275 6.22332C48.4608 7.43532 48.9308 8.85997 48.9823 10.3299C49.0193 11.8499 48.5502 13.3391 47.6487 14.5634C46.8185 15.6774 45.7928 16.6313 44.6217 17.3787C43.2626 18.2641 41.7975 18.9753 40.2611 19.4955C39.9224 19.6225 38.7371 20.0247 37.2765 20.4269C35.5236 20.9737 33.7113 21.3077 31.8787 21.4218H31.6459V21.4429Z" fill="white"/>
<path d="M31.6459 20.5116C31.3708 20.5116 31.107 20.4023 30.9125 20.2077C30.7179 20.0132 30.6086 19.7494 30.6086 19.4743C30.6082 19.2563 30.678 19.0439 30.8076 18.8685C30.9372 18.6932 31.1198 18.5642 31.3283 18.5006C32.6453 18.1347 33.9389 17.6893 35.202 17.167C36.1475 16.7857 37.0489 16.3031 37.8904 15.7277C38.2585 15.5151 38.5809 15.2316 38.8388 14.8937C39.0968 14.5559 39.2852 14.1702 39.3933 13.759C39.4835 13.1612 39.3951 12.5499 39.1392 12.0021C38.8897 11.4846 38.5282 11.0291 38.0809 10.6686C37.1919 9.97676 36.1441 9.51831 35.0327 9.33498H34.8634C34.0263 9.19935 33.2134 8.94264 32.4503 8.57294C32.0463 8.38787 31.705 8.0891 31.4682 7.71316C31.2314 7.33722 31.1092 6.90042 31.1167 6.45616C31.1508 5.81714 31.3687 5.20156 31.7442 4.68338C32.1197 4.16519 32.6368 3.76642 33.2335 3.535C34.7111 2.85171 36.3264 2.51852 37.9539 2.5613C38.9816 2.56452 40.0051 2.69244 41.002 2.94231C42.1373 3.21701 43.2278 3.65177 44.2407 4.23354C45.2778 4.82324 46.1736 5.63235 46.8655 6.60432C47.5934 7.67528 48.0043 8.92994 48.0509 10.224C48.1014 11.5626 47.6904 12.8779 46.8867 13.9495C46.1234 14.9819 45.1761 15.8646 44.0925 16.5532C42.7771 17.4359 41.3544 18.1473 39.859 18.67C39.859 18.67 38.5254 19.1357 36.9167 19.6014C35.2392 20.124 33.5052 20.4438 31.7517 20.5539L31.6459 20.5116Z" fill="#009640"/>
<path d="M54.3376 9.33499H61.1113C63.559 9.33499 65.9065 10.3073 67.6373 12.0381C69.3681 13.7689 70.3405 16.1164 70.3405 18.5641C70.3405 21.0119 69.3681 23.3593 67.6373 25.0901C65.9065 26.8209 63.559 27.7933 61.1113 27.7933H54.3376V9.33499ZM59.1215 23.7291H60.2011C60.8794 23.7291 61.551 23.5955 62.1777 23.3359C62.8043 23.0763 63.3736 22.6959 63.8533 22.2163C64.3329 21.7367 64.7133 21.1673 64.9729 20.5407C65.2324 19.914 65.366 19.2424 65.366 18.5641C65.366 17.8859 65.2324 17.2142 64.9729 16.5876C64.7133 15.961 64.3329 15.3916 63.8533 14.912C63.3736 14.4324 62.8043 14.0519 62.1777 13.7923C61.551 13.5328 60.8794 13.3992 60.2011 13.3992H59.0792L59.1215 23.7291Z" fill="black"/>
<path d="M88.6294 27.7933H84.1842V26.3962C83.7511 26.9931 83.1757 27.4724 82.5103 27.7903C81.8448 28.1083 81.1105 28.2548 80.374 28.2166C78.6623 28.1204 77.0523 27.3726 75.8745 26.1267C74.6968 24.8808 74.0405 23.2315 74.0405 21.517C74.0405 19.8026 74.6968 18.1532 75.8745 16.9073C77.0523 15.6615 78.6623 14.9137 80.374 14.8174C81.1032 14.8008 81.8275 14.9394 82.499 15.224C83.1705 15.5087 83.7738 15.9329 84.2689 16.4685V15.2408H88.6294V27.7933ZM78.5959 21.4429C78.6576 22.1611 78.9866 22.83 79.5176 23.3173C80.0487 23.8047 80.7433 24.0751 81.4641 24.0751C82.1849 24.0751 82.8795 23.8047 83.4106 23.3173C83.9417 22.83 84.2706 22.1611 84.3324 21.4429C84.2706 20.7248 83.9417 20.0559 83.4106 19.5685C82.8795 19.0812 82.1849 18.8108 81.4641 18.8108C80.7433 18.8108 80.0487 19.0812 79.5176 19.5685C78.9866 20.0559 78.6576 20.7248 78.5959 21.4429Z" fill="black"/>
<path d="M97.7104 21.6758L100.695 15.2408H105.691L99.1286 27.7933H96.2922L89.709 15.2408H94.7046L97.7104 21.6758Z" fill="black"/>
<path d="M120.021 21.5276C120.021 25.7611 116.486 28.2166 112.464 28.2166C108.442 28.2166 104.886 25.8035 104.886 21.5276C104.886 17.2517 108.421 14.8174 112.464 14.8174C116.507 14.8174 120.021 17.2517 120.021 21.5276ZM109.585 21.5276C109.647 22.2458 109.976 22.9146 110.507 23.402C111.038 23.8894 111.733 24.1598 112.454 24.1598C113.175 24.1598 113.869 23.8894 114.4 23.402C114.931 22.9146 115.26 22.2458 115.322 21.5276C115.26 20.8094 114.931 20.1406 114.4 19.6532C113.869 19.1658 113.175 18.8954 112.454 18.8954C111.733 18.8954 111.038 19.1658 110.507 19.6532C109.976 20.1406 109.647 20.8094 109.585 21.5276Z" fill="black"/>
<path d="M114.645 13.7379H111.004L112.337 11.4306H115.978L114.645 13.7379Z" fill="black"/>
<path d="M74.2142 16.3839H71.5894L71.6317 9.94885H75.1667L74.2142 16.3839Z" fill="black"/>
</g>
<defs>
<clipPath id="clip0_13012_3088">
<rect width="120" height="36.8107" fill="white"/>
</clipPath>
</defs>
</svg>