<svg id="Layer_1" data-name="Layer 1" xmlns="http://www.w3.org/2000/svg" xmlns:xlink="http://www.w3.org/1999/xlink" viewBox="0 0 163.27 96.51"><defs><style>.cls-1{fill:none;}.cls-2{clip-path:url(#clip-path);}.cls-3{fill:#fff;}.cls-4{fill:#00502f;}.cls-5{fill:#fff200;}</style><clipPath id="clip-path" transform="translate(-2.83 -2.55)"><rect class="cls-1" x="2.83" y="2.55" width="163.28" height="96.51"/></clipPath></defs><g class="cls-2"><path class="cls-3" d="M158.44,99.06H10.5c-4.26,0-7.67-2.9-7.67-6.29V2.56H158.53c4.26,0,7.58,2.7,7.57,6.08V93c0,3.39-3.41,6.08-7.67,6.08" transform="translate(-2.83 -2.55)"/><path class="cls-4" d="M4.94,92.78C4.94,95,7.4,97,10.51,97H158.45c3.1,0,5.63-1.81,5.63-4V8.7c0-2.23-2.44-4-5.54-4H5Z" transform="translate(-2.83 -2.55)"/><path class="cls-5" d="M126.78,88.32h16.54A5.38,5.38,0,0,0,148.67,83l0-35.86a5.32,5.32,0,0,0-5.34-5.28H126.83l-16.26,0a5.33,5.33,0,0,0-5.35,5.27l0,35.86a5.39,5.39,0,0,0,5.35,5.35ZM127,54.88h5.77a2.2,2.2,0,0,1,2.2,2.21v16a2.22,2.22,0,0,1-2.21,2.27H121.16A2.25,2.25,0,0,1,119,73.06l0-16a2.21,2.21,0,0,1,2.21-2.21Z" transform="translate(-2.83 -2.55)"/><path class="cls-5" d="M59.23,83.4a6.59,6.59,0,0,0,5.92,4.91l39.56,0-4.07-13-25.94,0c-.65,0-1.5-.57-1.5-1.21V56.73a1.94,1.94,0,0,1,2.07-1.86H86l-7.41,4.43V73.12l22-11.06V47.16c0-2.06-2.93-5.34-6.06-5.34h-30c-2.22,0-4.71,2.21-5.35,4.21Z" transform="translate(-2.83 -2.55)"/><path class="cls-5" d="M59.2,88.31l-24.31,0H26.76a6.78,6.78,0,0,1-6.62-6.93l.06-65.59,14.76,0L34.9,73.17a2.07,2.07,0,0,0,1.72,2.14l18,0,4.55,13" transform="translate(-2.83 -2.55)"/></g></svg>