<svg width="21" height="19" viewBox="0 0 21 19" fill="none" xmlns="http://www.w3.org/2000/svg">
<path d="M19.7461 2.5H5.4375L5.12109 0.953125C5.05078 0.566406 4.69922 0.25 4.3125 0.25H0.796875C0.550781 0.25 0.375 0.460938 0.375 0.671875V1.51562C0.375 1.76172 0.550781 1.9375 0.796875 1.9375H3.60938L6.03516 14.4531C5.64844 14.875 5.4375 15.4023 5.4375 16C5.4375 17.2656 6.42188 18.25 7.6875 18.25C8.91797 18.25 9.9375 17.2656 9.9375 16C9.9375 15.6133 9.79688 15.2266 9.62109 14.875H14.7188C14.543 15.2266 14.4375 15.6133 14.4375 16C14.4375 17.2656 15.4219 18.25 16.6875 18.25C17.918 18.25 18.9375 17.2656 18.9375 16C18.9375 15.3672 18.6562 14.8047 18.2344 14.3828L18.2695 14.2422C18.375 13.7148 17.9883 13.1875 17.4258 13.1875H7.51172L7.19531 11.5H18.1641C18.5859 11.5 18.9023 11.2539 19.0078 10.8672L20.5898 3.55469C20.6953 3.02734 20.3086 2.5 19.7461 2.5ZM7.6875 16.8438C7.19531 16.8438 6.84375 16.4922 6.84375 16C6.84375 15.543 7.19531 15.1562 7.6875 15.1562C8.14453 15.1562 8.53125 15.543 8.53125 16C8.53125 16.4922 8.14453 16.8438 7.6875 16.8438ZM16.6875 16.8438C16.1953 16.8438 15.8438 16.4922 15.8438 16C15.8438 15.543 16.1953 15.1562 16.6875 15.1562C17.1445 15.1562 17.5312 15.543 17.5312 16C17.5312 16.4922 17.1445 16.8438 16.6875 16.8438ZM17.4961 9.8125H6.84375L5.75391 4.1875H18.7266L17.4961 9.8125Z" fill="#00502f"/>
</svg>
