<svg width="21" height="17" viewBox="0 0 21 17" fill="none" xmlns="http://www.w3.org/2000/svg">
<path d="M20.4141 7.96875L18.375 6.28125V2.90625C18.375 2.76562 18.2344 2.625 18.0938 2.625H16.9688C16.793 2.66016 16.6875 2.76562 16.6875 2.90625V4.91016L11.7305 0.832031C11.4141 0.550781 10.957 0.410156 10.5 0.410156C10.0078 0.410156 9.55078 0.550781 9.23438 0.832031L0.550781 7.96875C0.445312 8.07422 0.375 8.21484 0.375 8.39062C0.375 8.53125 0.410156 8.67188 0.480469 8.74219L0.867188 9.19922C0.9375 9.30469 1.11328 9.375 1.28906 9.375C1.42969 9.375 1.53516 9.33984 1.64062 9.26953L2.625 8.46094V15C2.625 15.6328 3.11719 16.125 3.75 16.125H8.25C8.84766 16.125 9.33984 15.6328 9.375 15V11.3438H11.625V15C11.625 15.6328 12.1172 16.125 12.75 16.125H17.25C17.8477 16.125 18.3398 15.6328 18.375 15.0352V8.46094L19.3242 9.26953C19.4297 9.33984 19.5352 9.41016 19.6758 9.41016C19.8516 9.41016 20.0273 9.30469 20.1328 9.19922L20.4844 8.74219C20.5547 8.67188 20.625 8.53125 20.625 8.39062C20.625 8.21484 20.5195 8.07422 20.4141 7.96875ZM16.6523 14.4375H13.3125V10.7812C13.2773 10.1836 12.7852 9.69141 12.1875 9.65625H8.8125C8.17969 9.69141 7.6875 10.1836 7.6875 10.7812V14.4375H4.3125V7.08984L10.5 1.99219L16.6875 7.08984L16.6523 14.4375Z" fill="#e30613"/>
</svg>
